<?xml version="1.0" encoding="UTF-8"?>
<svg id="katman_2" data-name="katman 2" xmlns="http://www.w3.org/2000/svg" viewBox="0 0 32 32">
  <defs>
    <style>
      .cls-1 {
        fill: #333;
      }
    </style>
  </defs>
  <g id="Icons">
    <path id="Home_Outline" class="cls-1" d="M16.01,2c.13,0,.38,.03,.59,.2,.02,.03,.05,.05,.07,.08,.04,.04,.07,.07,.11,.11,.03,.03,.07,.06,.11,.09l12.87,12.36s.07,.07,.1,.11c0,.01,.01,.02,.02,.03,.02,.03,.03,.05,.04,.07,0,.03,.02,.06,.03,.08,0,.03,.02,.05,.03,.07v.1s.02,.08,.02,.13c0,.13-.06,.3-.22,.46-.1,.1-.25,.17-.43,.21-1.06,.22-1.75,1.24-1.57,2.3,.01,.08,.02,.14,.02,.18v10.21c0,.66-.62,1.22-1.35,1.22h-2.65c-.73,0-1.35-.56-1.35-1.22v-5.58c0-2.88-2.4-5.22-5.35-5.22h-2.21c-2.95,0-5.35,2.34-5.35,5.22v5.58c0,.66-.62,1.22-1.35,1.22h-2.65c-.73,0-1.35-.56-1.35-1.22v-10.21s0-.11,.02-.19c.18-1.06-.5-2.08-1.56-2.3-.18-.04-.32-.11-.43-.2-.03-.02-.07-.08-.14-.21-.06-.12-.1-.22-.1-.32,0-.26,.17-.45,.27-.53,.03-.02,.05-.05,.08-.07L15.36,2.25c.23-.22,.5-.25,.65-.25m0-2c-.74,0-1.47,.27-2.03,.81L.97,13.3c-.59,.51-.97,1.23-.97,2.05,0,.47,.13,.9,.35,1.29,.13,.24,.29,.48,.5,.68,.4,.38,.89,.61,1.4,.72-.03,.17-.05,.35-.05,.53v10.21c0,1.77,1.51,3.22,3.35,3.22h2.65c1.84,0,3.35-1.45,3.35-3.22v-5.58c0-1.77,1.51-3.22,3.35-3.22h2.21c1.84,0,3.35,1.45,3.35,3.22v5.58c0,1.77,1.51,3.22,3.35,3.22h2.65c1.84,0,3.35-1.45,3.35-3.22v-10.21c0-.18-.02-.35-.05-.53,.52-.11,1.01-.34,1.41-.72,.56-.54,.84-1.25,.84-1.96,0,0,0,0,0,0,0-.08-.02-.16-.03-.24,0-.09-.01-.19-.03-.28-.03-.14-.07-.27-.12-.41-.01-.03-.02-.07-.03-.11-.07-.16-.15-.31-.25-.45,0,0,0-.01-.01-.02-.12-.18-.26-.34-.42-.48L18.2,.96s-.06-.04-.09-.07c-.03-.03-.04-.06-.07-.08-.56-.54-1.3-.81-2.03-.81h0Z"/>
  </g>
</svg>