<?xml version="1.0" encoding="UTF-8"?>
<svg id="katman_2" data-name="katman 2" xmlns="http://www.w3.org/2000/svg" viewBox="0 0 32 23">
  <defs>
    <style>
      .cls-1 {
        fill: #333;
      }
    </style>
  </defs>
  <g id="Icons">
    <g id="Image_Outline" data-name="Image Outline">
      <path class="cls-1" d="M27.52,0H4.48C2.02,0,0,2.03,0,4.52v13.97c0,2.48,2.02,4.52,4.48,4.52H27.52c2.46,0,4.48-2.03,4.48-4.52V4.52c0-2.48-2.02-4.52-4.48-4.52Zm2.48,18.48c0,1.39-1.11,2.52-2.48,2.52H4.48c-1.37,0-2.48-1.13-2.48-2.52V4.52c0-1.39,1.11-2.52,2.48-2.52H27.52c1.37,0,2.48,1.13,2.48,2.52v13.97Z"/>
      <polygon class="cls-1" points="14.81 14.71 6.19 7.25 3.5 19.75 28.5 19.75 16.44 11.37 14.81 14.71"/>
      <circle class="cls-1" cx="25" cy="6.5" r="2.5"/>
    </g>
  </g>
</svg>