<?xml version="1.0" encoding="UTF-8"?>
<svg id="katman_2" data-name="katman 2" xmlns="http://www.w3.org/2000/svg" viewBox="0 0 32 23">
  <defs>
    <style>
      .cls-1 {
        fill: #815da4;
      }
    </style>
  </defs>
  <g id="Icons">
    <g id="Image">
      <path class="cls-1" d="M27.52,0H4.48C2.02,0,0,2.03,0,4.52v13.97c0,2.48,2.02,4.52,4.48,4.52H27.52c2.46,0,4.48-2.03,4.48-4.52V4.52c0-2.48-2.02-4.52-4.48-4.52Zm-2.52,4c1.38,0,2.5,1.12,2.5,2.5s-1.12,2.5-2.5,2.5-2.5-1.12-2.5-2.5,1.12-2.5,2.5-2.5ZM3.5,19.75L6.19,7.25l8.61,7.46,1.64-3.34,12.06,8.38H3.5Z"/>
    </g>
  </g>
</svg>