<?xml version="1.0" encoding="UTF-8"?>
<svg id="katman_2" data-name="katman 2" xmlns="http://www.w3.org/2000/svg" viewBox="0 0 32 32">
  <defs>
    <style>
      .cls-1 {
        fill: #815da4;
      }
    </style>
  </defs>
  <g id="Icons">
    <g id="Plus_Circle" data-name="Plus Circle">
      <path class="cls-1" d="M16,0C7.16,0,0,7.16,0,16s7.16,16,16,16,16-7.16,16-16S24.84,0,16,0Zm6.35,17.65s-4.68,0-4.7,0v4.7c0,.91-.74,1.65-1.65,1.65s-1.65-.74-1.65-1.65v-4.7h-4.7c-.91,0-1.65-.74-1.65-1.65s.74-1.65,1.65-1.65c0,0,4.68,0,4.7,0v-4.7c0-.91,.74-1.65,1.65-1.65s1.65,.74,1.65,1.65v4.7h0s4.7,0,4.7,0c.91,0,1.65,.74,1.65,1.65s-.74,1.65-1.65,1.65Z"/>
    </g>
  </g>
</svg>