<?xml version="1.0" encoding="UTF-8"?>
<svg id="katman_2" data-name="katman 2" xmlns="http://www.w3.org/2000/svg" viewBox="0 0 32 32">
  <defs>
    <style>
      .cls-1 {
        fill: #333;
      }
    </style>
  </defs>
  <g id="Icons">
    <g id="Plus_Circle_Outline" data-name="Plus Circle Outline">
      <path class="cls-1" d="M22.35,14.35h-4.7v-4.7c0-.91-.74-1.65-1.65-1.65s-1.65,.74-1.65,1.65v4.7s-4.7,0-4.7,0c-.91,0-1.65,.74-1.65,1.65s.74,1.65,1.65,1.65h4.7v4.7c0,.91,.74,1.65,1.65,1.65s1.65-.74,1.65-1.65v-4.7s4.7,0,4.7,0c.91,0,1.65-.74,1.65-1.65s-.74-1.65-1.65-1.65Z"/>
      <path class="cls-1" d="M16,0C7.16,0,0,7.16,0,16s7.16,16,16,16,16-7.16,16-16S24.84,0,16,0Zm0,30c-7.72,0-14-6.28-14-14S8.28,2,16,2s14,6.28,14,14-6.28,14-14,14Z"/>
    </g>
  </g>
</svg>