<?xml version="1.0" encoding="UTF-8"?>
<svg id="katman_2" data-name="katman 2" xmlns="http://www.w3.org/2000/svg" viewBox="0 0 32 32">
  <defs>
    <style>
      .cls-1 {
        fill: #333;
      }
    </style>
  </defs>
  <g id="Icons">
    <g id="Settings_Outline">
      <path class="cls-1" d="M28.92,16c0-1.89,1.31-3.47,3.08-3.88-.4-1.66-1.05-3.22-1.91-4.64-.64,.4-1.38,.6-2.11,.6-1.02,0-2.04-.39-2.82-1.17-1.34-1.34-1.53-3.4-.56-4.95-1.42-.87-2.98-1.53-4.64-1.94-.4,1.79-1.99,3.12-3.9,3.12s-3.52-1.35-3.91-3.15c-1.67,.4-3.24,1.05-4.67,1.91,1.01,1.55,.84,3.65-.52,5.01-.78,.78-1.8,1.17-2.83,1.17-.77,0-1.54-.22-2.2-.66-.87,1.42-1.53,2.99-1.94,4.66,1.83,.37,3.2,1.98,3.2,3.91s-1.37,3.55-3.2,3.91c.41,1.67,1.07,3.24,1.94,4.66,.67-.44,1.43-.66,2.2-.66,1.02,0,2.05,.39,2.83,1.17,1.36,1.36,1.53,3.46,.52,5.01,1.43,.86,3,1.51,4.67,1.91,.39-1.8,1.99-3.15,3.91-3.15s3.5,1.34,3.9,3.12c1.66-.41,3.22-1.07,4.64-1.94-.97-1.54-.79-3.6,.56-4.95,.78-.78,1.8-1.17,2.82-1.17,.73,0,1.47,.2,2.11,.6,.86-1.42,1.51-2.98,1.91-4.64-1.76-.42-3.08-1.99-3.08-3.88Zm.22,6.03c-.38-.08-.77-.11-1.17-.11-1.6,0-3.1,.62-4.24,1.75-1.47,1.47-2.04,3.51-1.64,5.44-.34,.16-.69,.3-1.04,.44-1.09-1.63-2.96-2.69-5-2.69s-3.94,1.07-5.03,2.73c-.35-.13-.69-.27-1.03-.42,.41-1.94-.16-4.03-1.62-5.49-1.13-1.13-2.64-1.76-4.24-1.76-.44,0-.87,.05-1.29,.14-.15-.33-.29-.67-.42-1.01,1.68-1.08,2.77-2.96,2.77-5.05s-1.09-3.97-2.77-5.05c.13-.34,.27-.68,.42-1.01,.42,.09,.85,.14,1.29,.14,1.6,0,3.11-.62,4.24-1.76,1.46-1.46,2.03-3.55,1.62-5.49,.34-.15,.68-.29,1.03-.42,1.09,1.66,2.96,2.73,5.03,2.73s3.91-1.06,5-2.69c.35,.13,.7,.28,1.04,.44-.4,1.93,.17,3.97,1.64,5.44,1.13,1.13,2.64,1.75,4.24,1.75,.39,0,.79-.04,1.17-.11,.16,.35,.3,.7,.43,1.05-1.63,1.08-2.66,2.93-2.66,4.98s1.03,3.9,2.66,4.98c-.13,.36-.28,.71-.43,1.05Z"/>
      <path class="cls-1" d="M16,9.26c-3.72,0-6.75,3.03-6.75,6.74s3.03,6.74,6.75,6.74,6.75-3.03,6.75-6.74-3.03-6.74-6.75-6.74Zm0,11.49c-2.62,0-4.75-2.13-4.75-4.75s2.13-4.75,4.75-4.75,4.75,2.13,4.75,4.75-2.13,4.75-4.75,4.75Z"/>
    </g>
  </g>
</svg>