<?xml version="1.0" encoding="UTF-8"?>
<svg id="katman_2" data-name="katman 2" xmlns="http://www.w3.org/2000/svg" viewBox="0 0 32 32">
  <defs>
    <style>
      .cls-1 {
        fill: #815da4;
      }
    </style>
  </defs>
  <g id="Icons">
    <path id="Settings" class="cls-1" d="M28.92,16c0-1.89,1.31-3.47,3.08-3.88-.4-1.66-1.05-3.22-1.91-4.64-1.54,.96-3.59,.77-4.93-.57-1.34-1.34-1.53-3.4-.56-4.95-1.42-.87-2.98-1.53-4.64-1.94-.4,1.79-1.99,3.12-3.9,3.12s-3.52-1.35-3.91-3.15c-1.67,.4-3.24,1.05-4.67,1.91,1.01,1.55,.84,3.65-.52,5.01-1.37,1.37-3.48,1.54-5.03,.51-.87,1.42-1.53,2.99-1.94,4.66,1.83,.37,3.2,1.98,3.2,3.91s-1.37,3.55-3.2,3.91c.41,1.67,1.07,3.24,1.94,4.66,1.55-1.03,3.66-.86,5.03,.51,1.36,1.36,1.53,3.46,.52,5.01,1.43,.86,3,1.51,4.67,1.91,.39-1.8,1.99-3.15,3.91-3.15s3.5,1.34,3.9,3.12c1.66-.41,3.22-1.07,4.64-1.94-.97-1.54-.79-3.6,.56-4.95,1.34-1.34,3.39-1.52,4.93-.57,.86-1.42,1.51-2.98,1.91-4.64-1.76-.42-3.08-1.99-3.08-3.88Zm-12.93,4.75c-2.62,0-4.75-2.13-4.75-4.75s2.13-4.75,4.75-4.75,4.75,2.13,4.75,4.75-2.13,4.75-4.75,4.75Z"/>
  </g>
</svg>