<?xml version="1.0" encoding="UTF-8"?>
<svg id="katman_2" data-name="katman 2" xmlns="http://www.w3.org/2000/svg" viewBox="0 0 25 28.5">
  <defs>
    <style>
      .cls-1 {
        fill: #333;
      }
    </style>
  </defs>
  <g id="Icons">
    <g id="User_Outline" data-name="User Outline">
      <path class="cls-1" d="M12.5,14c3.87,0,7-3.13,7-7S16.37,0,12.5,0,5.5,3.13,5.5,7s3.13,7,7,7Zm0-12c2.76,0,5,2.24,5,5s-2.24,5-5,5-5-2.24-5-5,2.24-5,5-5Z"/>
      <path class="cls-1" d="M24.47,20.03c0-3.59-2.86-6.53-6.35-6.53h-.55c-1.35,1.35-3.18,2.18-5.2,2.18s-3.86-.83-5.2-2.18h-.28c-3.49,0-6.35,2.94-6.35,6.53l-.53,8.47H25l-.53-8.47ZM2.13,26.5l.4-6.34s0-.08,0-.12c0-2.34,1.71-4.27,3.89-4.51,1.68,1.39,3.76,2.15,5.95,2.15s4.29-.77,5.97-2.17c2.3,.12,4.13,2.1,4.13,4.53,0,.04,0,.08,0,.12l.4,6.34H2.13Z"/>
    </g>
  </g>
</svg>